<svg xmlns="http://www.w3.org/2000/svg" width="32" height="32" fill="none" viewBox="0 0 32 32" id="slack">
  <path fill="#0A1408" d="M20.9434 14.6066C21.4157 14.1373 21.6832 13.5001 21.6874 12.8342V6.52145C21.6895 6.18904 21.6258 5.85948 21.5 5.55177 21.3743 5.24405 21.1889 4.96424 20.9546 4.72844 20.7203 4.49264 20.4416 4.30551 20.1347 4.17781 19.8278 4.05012 19.4986 3.98438 19.1662 3.98438 18.8338 3.98438 18.5047 4.05012 18.1977 4.17781 17.8908 4.30551 17.6122 4.49264 17.3779 4.72844 17.1435 4.96424 16.9582 5.24405 16.8324 5.55177 16.7066 5.85948 16.643 6.18904 16.6451 6.52145V12.8342C16.6493 13.5001 16.9167 14.1373 17.3891 14.6066 17.8614 15.076 18.5003 15.3395 19.1662 15.3395 19.8321 15.3395 20.471 15.076 20.9434 14.6066ZM12.8338 9.0424C12.3351 9.04242 11.8477 8.89457 11.4331 8.61754 11.0184 8.34052 10.6953 7.94676 10.5044 7.48607 10.3136 7.02538 10.2637 6.51844 10.3609 6.02936 10.4582 5.54029 10.6983 5.09105 11.0509 4.73844 11.4035 4.38584 11.8528 4.14572 12.3419 4.04844 12.8309 3.95116 13.3379 4.0011 13.7986 4.19194 14.2593 4.38277 14.653 4.70594 14.93 5.12056 15.2071 5.53518 15.3549 6.02265 15.3549 6.5213V9.0424H12.8338ZM8.61754 20.5664C8.89457 20.1517 9.04242 19.6643 9.0424 19.1656V16.6445H6.5213C6.02265 16.6445 5.53518 16.7924 5.12056 17.0694 4.70594 17.3464 4.38277 17.7402 4.19194 18.2009 4.0011 18.6616 3.95116 19.1685 4.04844 19.6576 4.14572 20.1466 4.38584 20.5959 4.73844 20.9485 5.09105 21.3011 5.54029 21.5412 6.02936 21.6385 6.51844 21.7358 7.02538 21.6858 7.48607 21.495 7.94676 21.3042 8.34052 20.981 8.61754 20.5664ZM11.0568 17.394C10.5845 17.8634 10.317 18.5006 10.3128 19.1665V25.4792C10.3107 25.8116 10.3744 26.1411 10.5001 26.4488 10.6259 26.7566 10.8113 27.0364 11.0456 27.2722 11.2799 27.508 11.5585 27.6951 11.8655 27.8228 12.1724 27.9505 12.5015 28.0162 12.8339 28.0162 13.1664 28.0162 13.4955 27.9505 13.8024 27.8228 14.1094 27.6951 14.388 27.508 14.6223 27.2722 14.8566 27.0364 15.042 26.7566 15.1678 26.4488 15.2935 26.1411 15.3572 25.8116 15.3551 25.4792V19.1665C15.3509 18.5006 15.0834 17.8634 14.6111 17.394 14.1387 16.9246 13.4999 16.6611 12.8339 16.6611 12.168 16.6611 11.5292 16.9246 11.0568 17.394ZM14.6064 11.0566C14.137 10.5842 13.4998 10.3167 12.8339 10.3125H6.52121C6.18879 10.3105 5.85924 10.3741 5.55152 10.4999 5.2438 10.6256 4.96399 10.811 4.7282 11.0453 4.4924 11.2797 4.30526 11.5583 4.17757 11.8652 4.04987 12.1721 3.98413 12.5013 3.98413 12.8337 3.98413 13.1661 4.04987 13.4953 4.17757 13.8022 4.30526 14.1091 4.4924 14.3877 4.7282 14.6221 4.96399 14.8564 5.2438 15.0418 5.55152 15.1675 5.85924 15.2933 6.18879 15.3569 6.52121 15.3548H12.8339C13.4998 15.3507 14.137 15.0832 14.6064 14.6108 15.0758 14.1385 15.3392 13.4996 15.3392 12.8337 15.3392 12.1678 15.0758 11.5289 14.6064 11.0566ZM22.9578 12.8338C22.9577 12.3351 23.1056 11.8477 23.3826 11.4331 23.6596 11.0184 24.0534 10.6953 24.5141 10.5044 24.9748 10.3136 25.4817 10.2637 25.9708 10.3609 26.4599 10.4582 26.9091 10.6983 27.2617 11.0509 27.6143 11.4035 27.8544 11.8528 27.9517 12.3419 28.049 12.8309 27.9991 13.3379 27.8082 13.7986 27.6174 14.2593 27.2942 14.653 26.8796 14.93 26.465 15.2071 25.9775 15.3549 25.4789 15.3549H22.9578V12.8338ZM19.1661 22.958C19.6648 22.958 20.1522 23.1058 20.5669 23.3829 20.9815 23.6599 21.3046 24.0536 21.4955 24.5143 21.6863 24.975 21.7363 25.482 21.639 25.971 21.5417 26.4601 21.3016 26.9094 20.949 27.262 20.5964 27.6146 20.1471 27.8547 19.6581 27.952 19.169 28.0492 18.662 27.9993 18.2014 27.8085 17.7407 27.6176 17.3469 27.2945 17.0699 26.8798 16.7929 26.4652 16.645 25.9778 16.645 25.4791V22.958H19.1661ZM17.3937 20.9429C17.8631 21.4152 18.5003 21.6827 19.1662 21.6869H25.4789C25.8113 21.689 26.1409 21.6253 26.4486 21.4995 26.7563 21.3738 27.0361 21.1884 27.2719 20.9541 27.5077 20.7198 27.6949 20.4411 27.8226 20.1342 27.9502 19.8273 28.016 19.4982 28.016 19.1657 28.016 18.8333 27.9502 18.5042 27.8226 18.1972 27.6949 17.8903 27.5077 17.6117 27.2719 17.3774 27.0361 17.143 26.7563 16.9577 26.4486 16.8319 26.1409 16.7062 25.8113 16.6425 25.4789 16.6446H19.1662C18.5003 16.6488 17.8631 16.9162 17.3937 17.3886 16.9243 17.8609 16.6609 18.4998 16.6609 19.1657 16.6609 19.8316 16.9243 20.4705 17.3937 20.9429Z" style="fill:#0a1408;fill:color(display-p3 .0409 .0796 .0297);fill-opacity:1"></path>
</svg>
