<svg xmlns="http://www.w3.org/2000/svg" viewBox="0 0 256 256" id="slack">
  <rect width="256" height="256" fill="none"></rect>
  <path fill="none" stroke="#000" stroke-linecap="round" stroke-linejoin="round" stroke-width="8" d="M80,56.00005h24a0,0,0,0,1,0,0v72a24,24,0,0,1-24,24h0a24,24,0,0,1-24-24V80a24,24,0,0,1,24-24Z" transform="rotate(90 80 104)"></path>
  <path fill="none" stroke="#000" stroke-linecap="round" stroke-linejoin="round" stroke-width="8" d="M128,80H104a24,24,0,0,1-24-24V56a24,24,0,0,1,24-24h0a24,24,0,0,1,24,24Z"></path>
  <path fill="none" stroke="#000" stroke-linecap="round" stroke-linejoin="round" stroke-width="8" d="M152,32.00007h24a0,0,0,0,1,0,0v72a24,24,0,0,1-24,24h0a24,24,0,0,1-24-24V56A24,24,0,0,1,152,32.00007Z" transform="rotate(180 152 80)"></path>
  <path fill="none" stroke="#000" stroke-linecap="round" stroke-linejoin="round" stroke-width="8" d="M176,128V104a24,24,0,0,1,24-24h0a24,24,0,0,1,24,24v0a24,24,0,0,1-24,24Z"></path>
  <path fill="none" stroke="#000" stroke-linecap="round" stroke-linejoin="round" stroke-width="8" d="M176,104.00005h24a0,0,0,0,1,0,0v72a24,24,0,0,1-24,24h0a24,24,0,0,1-24-24V128a24,24,0,0,1,24-24Z" transform="rotate(-90 176 152)"></path>
  <path fill="none" stroke="#000" stroke-linecap="round" stroke-linejoin="round" stroke-width="8" d="M128 176h24a24 24 0 0 1 24 24v0a24 24 0 0 1-24 24h0a24 24 0 0 1-24-24zM104 128h24a0 0 0 0 1 0 0v72a24 24 0 0 1-24 24h0a24 24 0 0 1-24-24V152a24 24 0 0 1 24-24zM80 128v24a24 24 0 0 1-24 24h0a24 24 0 0 1-24-24v0a24 24 0 0 1 24-24z"></path>
</svg>
